# xmcd CD database file
#
# Track frame offsets:
#	150
#	14908
#	29097
#	48252
#	63352
#	81053
#
# Disc length: 1279 seconds
#
# Revision: 0
# Processed by: cddbd v1.5.2PL0 Copyright (c) Steve Scherf et al.
# Submitted via: CDex 1.51
#
DISCID=4c04fd06
DTITLE=The Hickman Dalton Gang - The Hickman Dalton Gang VOL 1
DYEAR=2007
DGENRE=Country
TTITLE0=My Name is Dalton
TTITLE1=Old Border Town
TTITLE2=Whiskey Rain
TTITLE3=Long Tall Pine Tree
TTITLE4=Mexican Jail
TTITLE5=Justin O. Picker
EXTD=YEAR: 2007
EXTT0=
EXTT1=
EXTT2=
EXTT3=
EXTT4=
EXTT5=
PLAYORDER=
